# xmcd
#
# Track frame offsets:
#	150
#	13253
#	38259
#	60916
#	76909
#	94937
#	117691
#	140555
#	169267
#	177757
#	198665
#	233647
#
# Disc length: 3301 seconds
#
# Revision: 0
# Processed by: cddbd v1.5.2PL0 Copyright (c) Steve Scherf et al.
# Submitted via: audiograbber 1.83.01
#
DISCID=990ce30c
DTITLE=Various Artist - stereoplay 2018-10 - Dynamic Bass
DYEAR=2018
DGENRE=Audiophil
TTITLE0=Emerson, Lake and Palmer - Still.... You Turn Me On
TTITLE1=Oddgeir Berg Trio - Mermaid's Dance
TTITLE2=Lunatic Soul - Trials [edit]
TTITLE3=Ultraphonix - Soul Control
TTITLE4=Hattler - The Kite
TTITLE5=Panzerballett - Smoochy Borg Funk [edit]
TTITLE6=Tangerine Dream - Electron Bonfire
TTITLE7=Native Future Projekt - Sardegna Blues [edit]
TTITLE8=Camille Saint-Saëns - Karneval der Tiere, Der Elefant
TTITLE9=Ludwig van Beethoven - Symphonie Nr.5, 3. Satz: Allegro [Polnische Kamm
TTITLE9=erphilharmonie - Wojciech Rajski]
TTITLE10=Georg Friedrich Händel - Feuerwerksmusik - Ouvertüre [Tafelmusik - Jea
TTITLE10=nne Lamon]
TTITLE11=Andrzej Panufnik - Concertino für Pauken, Perc. and Strings, 5. Satz: Fi
TTITLE11=ne [Oberaigner, Löffler Konzerthausorchester Berlin - Lukasz Borowicz]
EXTD=
EXTT0=
EXTT1=
EXTT2=
EXTT3=
EXTT4=
EXTT5=
EXTT6=
EXTT7=
EXTT8=
EXTT9=
EXTT10=
EXTT11=
PLAYORDER=
